<svg xmlns="http://www.w3.org/2000/svg" viewBox="0 0 64 64" role="img" aria-label="ByteSense logo">
  <defs>
    <linearGradient id="bg" x1="0" x2="1" y1="0" y2="1">
      <stop offset="0%" stop-color="#8b5cf6"/>
      <stop offset="100%" stop-color="#22d3ee"/>
    </linearGradient>
  </defs>
  <rect width="64" height="64" rx="18" fill="#0a0714"/>
  <path d="M18 47V17h7.6c5.5 0 8.9 2.8 8.9 7.8 0 5-3.4 7.8-8.9 7.8H25V47h-7zm7-15.4h2.1c2.5 0 4-1.1 4-3.4s-1.5-3.4-4-3.4H25v6.8z" fill="url(#bg)"/>
  <path d="M40 47l-4.4-12.2h-1.6L30 47h7.1l.9 2.5H49L40 47zm-2.5-7.4l1.3-3.8 1.3 3.8h-2.6z" fill="#f5f3ff"/>
</svg>
